<svg xmlns="http://www.w3.org/2000/svg" width="1500" height="1000" viewBox="0 0 1500 1000" role="img" aria-labelledby="title description">
  <title id="title">Foldweave</title>
  <desc id="description">A restrained macOS-style Foldweave review window showing an original and proposed connected-folder structure before exact acceptance.</desc>

  <rect width="1500" height="1000" fill="#1c1c1e"/>

  <g transform="translate(104 72)">
    <g transform="translate(0 2)">
      <rect width="64" height="64" rx="14" fill="#2c2c2e" stroke="#48484a" stroke-width="2"/>
      <path d="M14 25h17l6 7h15v19H14z" fill="none" stroke="#0a84ff" stroke-width="3" stroke-linejoin="round"/>
      <path d="M21 39h7l5-6 6 10 4-5h6" fill="none" stroke="#64d2ff" stroke-width="3" stroke-linecap="round" stroke-linejoin="round"/>
    </g>
    <text x="88" y="38" fill="#f5f5f7" font-family="-apple-system,BlinkMacSystemFont,'SF Pro Display','Helvetica Neue',sans-serif" font-size="48" font-weight="700" letter-spacing="-1.1">Foldweave</text>
    <text x="88" y="73" fill="#98989d" font-family="-apple-system,BlinkMacSystemFont,'SF Pro Text','Helvetica Neue',sans-serif" font-size="23">Change the structure. Keep the connections.</text>
    <text x="1292" y="39" text-anchor="end" fill="#98989d" font-family="-apple-system,BlinkMacSystemFont,'SF Pro Text','Helvetica Neue',sans-serif" font-size="20">Review before execution</text>
  </g>

  <g transform="translate(100 188)">
    <rect width="1300" height="716" rx="26" fill="#242426" stroke="#48484a" stroke-width="2"/>

    <path d="M26 0h1248a26 26 0 0 1 26 26v58H0V26A26 26 0 0 1 26 0z" fill="#2c2c2e"/>
    <line x1="0" y1="84" x2="1300" y2="84" stroke="#48484a" stroke-width="2"/>
    <circle cx="35" cy="42" r="9" fill="#ff5f57"/>
    <circle cx="65" cy="42" r="9" fill="#febc2e"/>
    <circle cx="95" cy="42" r="9" fill="#28c840"/>
    <text x="650" y="49" text-anchor="middle" fill="#f5f5f7" font-family="-apple-system,BlinkMacSystemFont,'SF Pro Text','Helvetica Neue',sans-serif" font-size="20" font-weight="600">Review structure</text>

    <g transform="translate(28 108)">
      <rect width="340" height="48" rx="10" fill="#3a3a3c" stroke="#545458"/>
      <rect x="171" y="2" width="167" height="44" rx="8" fill="#0a84ff"/>
      <text x="86" y="31" text-anchor="middle" fill="#d1d1d6" font-family="-apple-system,BlinkMacSystemFont,'SF Pro Text','Helvetica Neue',sans-serif" font-size="18">Original structure</text>
      <text x="254" y="31" text-anchor="middle" fill="#ffffff" font-family="-apple-system,BlinkMacSystemFont,'SF Pro Text','Helvetica Neue',sans-serif" font-size="18" font-weight="600">Proposed structure</text>

      <rect x="890" width="354" height="48" rx="10" fill="#1c1c1e" stroke="#545458"/>
      <circle cx="918" cy="23" r="8" fill="none" stroke="#98989d" stroke-width="2"/>
      <path d="M924 29l8 8" stroke="#98989d" stroke-width="2" stroke-linecap="round"/>
      <text x="944" y="31" fill="#98989d" font-family="-apple-system,BlinkMacSystemFont,'SF Pro Text','Helvetica Neue',sans-serif" font-size="18">Search</text>
    </g>

    <g transform="translate(28 176)">
      <text x="0" y="20" fill="#98989d" font-family="-apple-system,BlinkMacSystemFont,'SF Pro Text','Helvetica Neue',sans-serif" font-size="16">Source</text>
      <text x="58" y="20" fill="#f5f5f7" font-family="-apple-system,BlinkMacSystemFont,'SF Pro Text','Helvetica Neue',sans-serif" font-size="16" font-weight="600">Unchanged</text>
      <text x="209" y="20" fill="#98989d" font-family="-apple-system,BlinkMacSystemFont,'SF Pro Text','Helvetica Neue',sans-serif" font-size="16">Files</text>
      <text x="246" y="20" fill="#f5f5f7" font-family="-apple-system,BlinkMacSystemFont,'SF Pro Text','Helvetica Neue',sans-serif" font-size="16" font-weight="600">24 accounted for</text>
      <text x="450" y="20" fill="#98989d" font-family="-apple-system,BlinkMacSystemFont,'SF Pro Text','Helvetica Neue',sans-serif" font-size="16">Links</text>
      <text x="490" y="20" fill="#f5f5f7" font-family="-apple-system,BlinkMacSystemFont,'SF Pro Text','Helvetica Neue',sans-serif" font-size="16" font-weight="600">23 updated</text>
      <text x="673" y="20" fill="#98989d" font-family="-apple-system,BlinkMacSystemFont,'SF Pro Text','Helvetica Neue',sans-serif" font-size="16">Output</text>
      <text x="727" y="20" fill="#f5f5f7" font-family="-apple-system,BlinkMacSystemFont,'SF Pro Text','Helvetica Neue',sans-serif" font-size="16" font-weight="600">Not created</text>
    </g>

    <g transform="translate(28 226)">
      <rect width="1244" height="364" rx="12" fill="#1c1c1e"/>
      <line x1="700" y1="0" x2="700" y2="364" stroke="#48484a" stroke-width="2"/>

      <g transform="translate(24 24)" font-family="-apple-system,BlinkMacSystemFont,'SF Pro Text','Helvetica Neue',sans-serif">
        <text fill="#f5f5f7" font-size="18" font-weight="600">Proposed structure</text>

        <g transform="translate(0 44)" fill="#d1d1d6" font-size="18">
          <path d="M2 5l6 6 6-6" fill="none" stroke="#98989d" stroke-width="2" stroke-linecap="round" stroke-linejoin="round"/>
          <path d="M26 4h18l5 6h21v16H26z" fill="#0a84ff" opacity="0.85"/>
          <text x="82" y="22">01-briefing</text>
        </g>
        <g transform="translate(40 88)" fill="#d1d1d6" font-size="18">
          <path d="M12 1h17l7 7v25H12z" fill="none" stroke="#64d2ff" stroke-width="2"/>
          <text x="52" y="24">client-brief.md</text>
          <text x="584" y="24" text-anchor="end" fill="#98989d" font-size="15">Moved · Link updated</text>
        </g>
        <g transform="translate(0 136)" fill="#d1d1d6" font-size="18">
          <path d="M2 5l6 6 6-6" fill="none" stroke="#98989d" stroke-width="2" stroke-linecap="round" stroke-linejoin="round"/>
          <path d="M26 4h18l5 6h21v16H26z" fill="#0a84ff" opacity="0.85"/>
          <text x="82" y="22">02-approved</text>
        </g>
        <g transform="translate(40 180)" fill="#d1d1d6" font-size="18">
          <path d="M12 1h17l7 7v25H12z" fill="none" stroke="#64d2ff" stroke-width="2"/>
          <text x="52" y="24">final-report.pdf</text>
          <text x="584" y="24" text-anchor="end" fill="#98989d" font-size="15">Moved + renamed</text>
        </g>
        <g transform="translate(0 228)" fill="#d1d1d6" font-size="18">
          <path d="M2 5l6 6 6-6" fill="none" stroke="#98989d" stroke-width="2" stroke-linecap="round" stroke-linejoin="round"/>
          <path d="M26 4h18l5 6h21v16H26z" fill="#0a84ff" opacity="0.85"/>
          <text x="82" y="22">05-research</text>
        </g>
        <g transform="translate(40 272)" fill="#d1d1d6" font-size="18">
          <path d="M12 1h17l7 7v25H12z" fill="none" stroke="#64d2ff" stroke-width="2"/>
          <text x="52" y="24">approval-notes.md</text>
          <text x="584" y="24" text-anchor="end" fill="#98989d" font-size="15">Moved · Link updated</text>
        </g>
      </g>

      <g transform="translate(730 24)" font-family="-apple-system,BlinkMacSystemFont,'SF Pro Text','Helvetica Neue',sans-serif">
        <text fill="#f5f5f7" font-size="18" font-weight="600">approval-notes.md</text>
        <text y="54" fill="#98989d" font-size="15">CURRENT</text>
        <text x="104" y="54" fill="#f5f5f7" font-size="18">conversations/approval.md</text>
        <text y="100" fill="#98989d" font-size="15">PROPOSED</text>
        <text x="104" y="100" fill="#f5f5f7" font-size="18">05-research/notes/approval-notes.md</text>
        <text y="146" fill="#98989d" font-size="15">AUTHORITY</text>
        <text x="104" y="146" fill="#f5f5f7" font-size="18">GPT proposal, checked by fixed code</text>
        <text y="208" fill="#98989d" font-size="15">SUPPORTED LINK</text>
        <text y="245" fill="#64d2ff" font-size="17">Rewritten</text>
        <text x="98" y="245" fill="#f5f5f7" font-family="ui-monospace,SFMono-Regular,Menlo,monospace" font-size="16">../ready/cover.png</text>
        <text x="332" y="245" fill="#98989d" font-size="18">→</text>
        <text x="365" y="245" fill="#f5f5f7" font-family="ui-monospace,SFMono-Regular,Menlo,monospace" font-size="16">../../02-approved/cover.png</text>
      </g>
    </g>

    <g transform="translate(28 616)">
      <text x="0" y="22" fill="#f5f5f7" font-family="-apple-system,BlinkMacSystemFont,'SF Pro Text','Helvetica Neue',sans-serif" font-size="18" font-weight="600">Change this proposal</text>
      <rect y="38" width="820" height="48" rx="10" fill="#1c1c1e" stroke="#545458"/>
      <text x="18" y="68" fill="#98989d" font-family="-apple-system,BlinkMacSystemFont,'SF Pro Text','Helvetica Neue',sans-serif" font-size="17">Describe a change</text>
      <rect x="862" y="38" width="382" height="48" rx="10" fill="#0a84ff"/>
      <text x="1053" y="68" text-anchor="middle" fill="#ffffff" font-family="-apple-system,BlinkMacSystemFont,'SF Pro Text','Helvetica Neue',sans-serif" font-size="17" font-weight="600">Accept this structure and create copy</text>
    </g>
  </g>
</svg>
